<svg xmlns="http://www.w3.org/2000/svg" width="56" height="65"><rect x="0" y="0" width="100%" height="100%" fill="rgb(50,93,157)"></rect><rect x="-6" y="-6" width="12" height="12" stroke="#000" stroke-opacity="0.02" fill="#222" fill-opacity="0.046" stroke-width="1"></rect><rect x="50.78460969082653" y="-6" width="12" height="12" stroke="#000" stroke-opacity="0.02" fill="#222" fill-opacity="0.046" stroke-width="1"></rect><rect x="-6" y="59.569219381653056" width="12" height="12" stroke="#000" stroke-opacity="0.02" fill="#222" fill-opacity="0.046" stroke-width="1"></rect><rect x="50.78460969082653" y="59.569219381653056" width="12" height="12" stroke="#000" stroke-opacity="0.02" fill="#222" fill-opacity="0.046" stroke-width="1"></rect><rect x="22.392304845413264" y="10.392304845413264" width="12" height="12" stroke="#000" stroke-opacity="0.02" fill="#ddd" fill-opacity="0.02" stroke-width="1"></rect><rect x="-6" y="26.784609690826528" width="12" height="12" stroke="#000" stroke-opacity="0.02" fill="#ddd" fill-opacity="0.07200000000000001" stroke-width="1"></rect><rect x="50.78460969082653" y="26.784609690826528" width="12" height="12" stroke="#000" stroke-opacity="0.02" fill="#ddd" fill-opacity="0.07200000000000001" stroke-width="1"></rect><rect x="22.392304845413264" y="43.17691453623979" width="12" height="12" stroke="#000" stroke-opacity="0.02" fill="#222" fill-opacity="0.15" stroke-width="1"></rect><polyline points="0,0,10.392304845413264,6,0,12,0,0" stroke="#000" stroke-opacity="0.02" fill="#ddd" fill-opacity="0.02" stroke-width="1" transform="translate(6,-6) rotate(0,6,5.196152422706632)"></polyline><polyline points="0,0,10.392304845413264,6,0,12,0,0" stroke="#000" stroke-opacity="0.02" fill="#ddd" fill-opacity="0.02" stroke-width="1" transform="translate(6,71.56921938165306) rotate(0,6,5.196152422706632) scale(1,-1)"></polyline><polyline points="0,0,10.392304845413264,6,0,12,0,0" stroke="#000" stroke-opacity="0.02" fill="#ddd" fill-opacity="0.03733333333333333" stroke-width="1" transform="translate(50.78460969082653,-6) rotate(0,6,5.196152422706632) scale(-1,1)"></polyline><polyline points="0,0,10.392304845413264,6,0,12,0,0" stroke="#000" stroke-opacity="0.02" fill="#ddd" fill-opacity="0.03733333333333333" stroke-width="1" transform="translate(50.78460969082653,71.56921938165306) rotate(0,6,5.196152422706632) scale(-1,-1)"></polyline><polyline points="0,0,10.392304845413264,6,0,12,0,0" stroke="#000" stroke-opacity="0.02" fill="#ddd" fill-opacity="0.03733333333333333" stroke-width="1" transform="translate(34.392304845413264,10.392304845413264)"></polyline><polyline points="0,0,10.392304845413264,6,0,12,0,0" stroke="#000" stroke-opacity="0.02" fill="#ddd" fill-opacity="0.02" stroke-width="1" transform="translate(22.392304845413264,10.392304845413264) scale(-1,1)"></polyline><polyline points="0,0,10.392304845413264,6,0,12,0,0" stroke="#000" stroke-opacity="0.02" fill="#222" fill-opacity="0.098" stroke-width="1" transform="translate(34.392304845413264,55.17691453623979) scale(1,-1)"></polyline><polyline points="0,0,10.392304845413264,6,0,12,0,0" stroke="#000" stroke-opacity="0.02" fill="#222" fill-opacity="0.046" stroke-width="1" transform="translate(22.392304845413264,55.17691453623979) scale(-1,-1)"></polyline><polyline points="0,0,10.392304845413264,6,0,12,0,0" stroke="#000" stroke-opacity="0.02" fill="#222" fill-opacity="0.08066666666666666" stroke-width="1" transform="translate(6,26.784609690826528)"></polyline><polyline points="0,0,10.392304845413264,6,0,12,0,0" stroke="#000" stroke-opacity="0.02" fill="#222" fill-opacity="0.13266666666666665" stroke-width="1" transform="translate(50.78460969082653,26.784609690826528) scale(-1,1)"></polyline><rect x="0" y="0" width="12" height="12" stroke="#000" stroke-opacity="0.02" fill="#222" fill-opacity="0.06333333333333334" stroke-width="1" transform="translate(6,6) rotate(-30,0,0)"></rect><rect x="0" y="0" width="12" height="12" stroke="#000" stroke-opacity="0.02" fill="#ddd" fill-opacity="0.10666666666666667" stroke-width="1" transform="scale(-1,1) translate(-50.78460969082653,6) rotate(-30,0,0)"></rect><rect x="0" y="0" width="12" height="12" stroke="#000" stroke-opacity="0.02" fill="#ddd" fill-opacity="0.07200000000000001" stroke-width="1" transform="translate(6,14.784609690826528) rotate(30,0,12)"></rect><rect x="0" y="0" width="12" height="12" stroke="#000" stroke-opacity="0.02" fill="#ddd" fill-opacity="0.07200000000000001" stroke-width="1" transform="scale(-1,1) translate(-50.78460969082653,14.784609690826528) rotate(30,0,12)"></rect><rect x="0" y="0" width="12" height="12" stroke="#000" stroke-opacity="0.02" fill="#ddd" fill-opacity="0.12400000000000001" stroke-width="1" transform="scale(1,-1) translate(6,-50.78460969082653) rotate(30,0,12)"></rect><rect x="0" y="0" width="12" height="12" stroke="#000" stroke-opacity="0.02" fill="#ddd" fill-opacity="0.10666666666666667" stroke-width="1" transform="scale(-1,-1) translate(-50.78460969082653,-50.78460969082653) rotate(30,0,12)"></rect><rect x="0" y="0" width="12" height="12" stroke="#000" stroke-opacity="0.02" fill="#222" fill-opacity="0.11533333333333334" stroke-width="1" transform="scale(1,-1) translate(6,-59.569219381653056) rotate(-30,0,0)"></rect><rect x="0" y="0" width="12" height="12" stroke="#000" stroke-opacity="0.02" fill="#ddd" fill-opacity="0.02" stroke-width="1" transform="scale(-1,-1) translate(-50.78460969082653,-59.569219381653056) rotate(-30,0,0)"></rect></svg>